<svg xmlns="http://www.w3.org/2000/svg" viewBox="0 0 80 85" role="img" aria-labelledby="title">
  <title id="title">Icône Babelio</title>
  <path fill="#FBB91E" d="M9.438 72.217v9.924h59.546V55.026C51.75 65.915 31.33 72.217 9.438 72.217Z"/>
  <path fill="#FBB91E" d="M19.362 54.117v12.74c3.904-.361 7.779-.932 11.594-1.711 6.852-1.402 13.59-3.494 20.031-6.218 2.737-1.159 5.433-2.437 8.072-3.825V32.862C48.904 44.053 35.017 51.791 19.362 54.117Z"/>
  <path fill="#FBB91E" d="M29.286 32.528V46.71c1.455-.493 2.894-1.04 4.317-1.641 3.677-1.556 7.225-3.479 10.544-5.722 1.72-1.164 3.387-2.417 4.987-3.751V9.588C45.58 19.468 38.441 27.637 29.286 32.528Z"/>
</svg>
